{"title":"Watchmen-720p MP4 AAC Ultimate Cut BRRip 2009-CC","uid":7107929,"size":3479156505,"categoryP":"video","categoryS":"hd___movies","magnet":"?xt=urn:btih:4a12adc845ddb3b8cf2613a1161dfdf1a53c9a29&amp;dn=Watchmen-720p+MP4+AAC+Ultimate+Cut+BRRip+2009-CC&amp;tr=udp%3A%2F%2Ftracker.openbittorrent.com%3A80&amp;tr=udp%3A%2F%2Fopen.demonii.com%3A1337&amp;tr=udp%3A%2F%2Ftracker.coppersurfer.tk%3A6969&amp;tr=udp%3A%2F%2Fexodus.desync.com%3A6969","seeders":1,"leechers":3,"uploader":"Caveman44","files":-1,"time":1331930998,"description":"Source: Watchmen.2009.Ultimate.Cut.720p.BluRay.x264-SiNNERS\n\nSubs: Arabic, Brazilian, Bulgarian, Croatian, Danish, Dutch, English, Farsi-Persian, Finnish, French, Hungarian, Indonesian, Polish, Portuguese, Romanian, Slovenian and Spanish.\n\nSample and Screens included.\n\nGeneral\nComplete name                    : Watchmen-720p MP4 AAC Ultimate Cut BRRip 2009-CC.mp4\nFormat                           : MPEG-4\nFormat profile                   : Base Media\nCodec ID                         : isom\nFile size                        : 3.21 GiB\nDuration                         : 3h 35mn\nOverall bit rate                 : 2 133 Kbps\nEncoded date                     : UTC 2012-03-15 10:11:00\n\nVideo\nID                               : 1\nFormat                           : AVC\nFormat/Info                      : Advanced Video Codec\nFormat profile                   : &lt;a class=&quot;__cf_email__&quot; href=&quot;/cdn-cgi/l/email-protection&quot; data-cfemail=&quot;d49cbdb3bc9498e7fae5&quot;&gt;[email&amp;#160;protected]&lt;/a&gt;&lt;script cf-hash='f9e31' type=&quot;text/javascript&quot;&gt;\n/* &lt;![CDATA[ */!function(){try{var t=&quot;currentScript&quot;in document?document.currentScript:function(){for(var t=document.getElementsByTagName(&quot;script&quot;),e=t.length;e--;)if(t[e].getAttribute(&quot;cf-hash&quot;))return t[e]}();if(t&amp;&amp;t.previousSibling){var e,r,n,i,c=t.previousSibling,a=c.getAttribute(&quot;data-cfemail&quot;);if(a){for(e=&quot;&quot;,r=parseInt(a.substr(0,2),16),n=2;a.length-n;n+=2)i=parseInt(a.substr(n,2),16)^r,e+=String.fromCharCode(i);e=document.createTextNode(e),c.parentNode.replaceChild(e,c)}}}catch(u){}}();/* ]]&gt; */&lt;/script&gt;\nFormat settings, CABAC           : Yes\nFormat settings, ReFrames        : 5 frames\nCodec ID                         : avc1\nCodec ID/Info                    : Advanced Video Coding\nDuration                         : 3h 35mn\nBit rate mode                    : Variable\nBit rate                         : 1 744 Kbps\nNominal bit rate                 : 1 786 Kbps\nMaximum bit rate                 : 23.7 Mbps\nWidth                            : 1 280 pixels\nHeight                           : 528 pixels\nDisplay aspect ratio             : 2.40:1\nFrame rate mode                  : Variable\nFrame rate                       : 23.976 fps\nMinimum frame rate               : 19.048 fps\nMaximum frame rate               : 24.390 fps\nResolution                       : 24 bits\nColorimetry                      : 4:2:0\nScan type                        : Progressive\nBits/(Pixel*Frame)               : 0.108\nStream size                      : 2.62 GiB (82%)\nWriting library                  : x264 core 112\n\nAudio\nID                               : 2\nFormat                           : AAC\nFormat/Info                      : Advanced Audio Codec\nFormat version                   : Version 4\nFormat profile                   : LC\nFormat settings, SBR             : No\nCodec ID                         : 40\nDuration                         : 3h 35mn\nBit rate mode                    : Variable\nBit rate                         : 384 Kbps\nMaximum bit rate                 : 714 Kbps\nChannel(s)                       : 6 channels\nChannel positions                : Front: L C R, Rear: L R, LFE\nSampling rate                    : 48.0 KHz\nResolution                       : 16 bits\nStream size                      : 591 MiB (18%)\n","torrent":{"xt":"urn:btih:4a12adc845ddb3b8cf2613a1161dfdf1a53c9a29","amp;dn":"Watchmen-720p+MP4+AAC+Ultimate+Cut+BRRip+2009-CC","amp;tr":["udp%3A%2F%2Ftracker.openbittorrent.com%3A80","udp%3A%2F%2Fopen.demonii.com%3A1337","udp%3A%2F%2Ftracker.coppersurfer.tk%3A6969","udp%3A%2F%2Fexodus.desync.com%3A6969"],"infoHash":"4a12adc845ddb3b8cf2613a1161dfdf1a53c9a29","infoHashBuffer":{"type":"Buffer","data":[74,18,173,200,69,221,179,184,207,38,19,161,22,29,253,241,165,60,154,41]},"announce":[],"urlList":[]}}